<svg width="116" height="24" viewBox="0 0 116 24" fill="none" xmlns="http://www.w3.org/2000/svg">
<g clip-path="url(#clip0_883_12036)">
<path d="M6.0347 12.0787L3.45655 14.6578L0.853516 12.0787L3.45559 9.47662L6.0347 12.0787ZM12.3375 5.77591L16.778 10.2164L19.381 7.61526L12.3375 0.594727L5.29399 7.63823L7.89702 10.2394L12.3375 5.77591ZM21.2194 9.47662L18.6403 12.0787L21.2424 14.6808L23.8435 12.0787L21.2194 9.47662ZM12.3375 18.3815L7.89702 13.9181L5.29399 16.5201L12.3375 23.5627L19.381 16.5192L16.778 13.9181L12.3375 18.3815ZM12.3375 14.6588L14.9396 12.0557L12.3375 9.47758L9.73541 12.0787L12.3375 14.6578V14.6588ZM39.7019 14.9267V14.8827C39.7019 13.2003 38.8042 12.3476 37.3467 11.7868C38.2434 11.294 39.0061 10.4853 39.0061 9.07277V9.02875C39.0061 7.05446 37.4137 5.77591 34.8566 5.77591H29.0027V18.3595H34.9915C37.8396 18.3815 39.7019 17.2149 39.7019 14.9277V14.9267ZM36.2471 9.54457C36.2471 10.4863 35.4844 10.8671 34.2508 10.8671H31.6947V8.19807H34.4307C35.5973 8.19807 36.2471 8.66892 36.2471 9.49959V9.54457ZM36.9429 14.5688C36.9429 15.5105 36.2031 15.9373 34.9906 15.9373H31.6947V13.1773H34.9016C36.3151 13.1773 36.9429 13.6941 36.9429 14.5458V14.5688ZM45.5109 18.3815V5.77591H42.7298V18.3595H45.5109V18.3815ZM60.4046 18.3815V5.77591H57.6676V13.5372L51.7687 5.77591H49.2116V18.3595H51.9486V10.3743L58.0495 18.3815H60.4037H60.4046ZM75.7453 18.3815L70.3411 5.70892H67.785L62.3789 18.3815H65.2279L66.3715 15.5555H71.6876L72.8312 18.3815H75.7472H75.7453ZM70.699 13.1103H67.3572L69.0396 9.02875L70.699 13.1103ZM88.9576 18.3815V5.77591H86.2206V13.5372L80.3217 5.77591H77.7646V18.3595H80.5016V10.3743L86.6024 18.3815H88.9567H88.9576ZM103.245 16.3402L101.473 14.5688C100.486 15.4655 99.6109 16.0483 98.1534 16.0483C96.0002 16.0483 94.4977 14.254 94.4977 12.1007V12.0337C94.4977 9.88048 96.0222 8.10907 98.1534 8.10907C99.409 8.10907 100.397 8.64691 101.383 9.5216L103.155 7.48033C101.989 6.33671 100.576 5.52901 98.1984 5.52901C94.3407 5.52901 91.6267 8.46699 91.6267 12.0337V12.0787C91.6267 15.6895 94.3847 18.5604 98.0864 18.5604C100.509 18.5834 101.944 17.7307 103.245 16.3402ZM115.065 18.3815V15.9143H108.224V13.2673H114.168V10.8002H108.224V8.24305H114.976V5.77591H105.488V18.3595H115.065V18.3815Z" fill="white"/>
</g>
<defs>
<clipPath id="clip0_883_12036">
<rect width="114.84" height="22.9679" fill="white" transform="translate(0.853516 0.594727)"/>
</clipPath>
</defs>
</svg>
