<svg width="437" height="483" viewBox="0 0 437 483" fill="none" xmlns="http://www.w3.org/2000/svg">
<g filter="url(#filter0_f_796_12665)">
<path d="M125 173.155C125 159.995 133.69 148.433 146.283 144.839L150.631 143.598C195 130.934 242 130.934 286.369 143.598L290.717 144.839C303.31 148.433 312 159.995 312 173.155V258.858C312 280.623 301.937 301.152 284.769 314.412L256.792 336.019C234.211 353.46 202.789 353.46 180.207 336.019L152.231 314.412C135.063 301.152 125 280.623 125 258.858V173.155Z" fill="url(#paint0_linear_796_12665)"/>
<path d="M125 173.155C125 159.995 133.69 148.433 146.283 144.839L150.631 143.598C195 130.934 242 130.934 286.369 143.598L290.717 144.839C303.31 148.433 312 159.995 312 173.155V258.858C312 280.623 301.937 301.152 284.769 314.412L256.792 336.019C234.211 353.46 202.789 353.46 180.207 336.019L152.231 314.412C135.063 301.152 125 280.623 125 258.858V173.155Z" fill="url(#paint1_linear_796_12665)"/>
</g>
<g opacity="0.1" filter="url(#filter1_f_796_12665)">
<path d="M64 128.586C64 106.857 78.3587 87.7672 99.1675 81.8322L106.352 79.7829C179.669 58.8719 257.331 58.8719 330.648 79.7829L337.833 81.8322C358.641 87.7672 373 106.857 373 128.586V270.096C373 306.034 356.372 339.93 328.003 361.825L281.775 397.502C244.462 426.299 192.538 426.299 155.225 397.502L108.997 361.825C80.6276 339.93 64 306.034 64 270.096V128.586Z" fill="url(#paint2_linear_796_12665)"/>
<path d="M64 128.586C64 106.857 78.3587 87.7672 99.1675 81.8322L106.352 79.7829C179.669 58.8719 257.331 58.8719 330.648 79.7829L337.833 81.8322C358.641 87.7672 373 106.857 373 128.586V270.096C373 306.034 356.372 339.93 328.003 361.825L281.775 397.502C244.462 426.299 192.538 426.299 155.225 397.502L108.997 361.825C80.6276 339.93 64 306.034 64 270.096V128.586Z" fill="url(#paint3_linear_796_12665)"/>
</g>
<path d="M336.864 325.253L321.213 309.624C319.883 308.296 318.08 307.55 316.199 307.55H287.21C285.329 307.55 283.526 306.804 282.196 305.476L257.682 280.996M326.227 299.879H293.71C291.829 299.879 290.026 299.133 288.696 297.805L264.182 273.325M307.318 325.253H287.21C285.329 325.253 283.526 324.507 282.196 323.179L252.364 293.388M319.136 351.217L311.759 343.849C310.429 342.521 308.625 341.775 306.745 341.775H287.21C285.329 341.775 283.526 341.029 282.196 339.701L245.864 303.419M292.545 367.149H276.573C274.693 367.149 272.889 366.403 271.559 365.075L225.182 318.762M235.818 310.501L274.514 349.143C275.844 350.471 277.647 351.217 279.528 351.217H298.472C300.353 351.217 302.156 351.963 303.486 353.291L318.241 368.026C319.571 369.354 321.375 370.1 323.255 370.1H336.864M135.364 370.1H151.336C153.216 370.1 155.02 369.354 156.35 368.026L202.727 321.712M99.9091 364.789L130.636 334.104M130.636 334.104L159.591 305.19M130.636 334.104H142.472C144.353 334.104 146.156 333.358 147.486 332.03L173.182 306.37M130.636 351.217H147.199C149.08 351.217 150.883 350.471 152.213 349.143L182.636 318.762M114.682 339.415L153.091 301.059M101.682 321.712H117.063C118.943 321.712 120.747 320.966 122.077 319.638L147.773 293.978M98.1364 295.748L111.423 282.48C112.753 281.152 114.557 280.406 116.437 280.406H142.455M121.773 305.19L138.909 288.077M336.864 152.946L321.213 168.575C319.883 169.903 318.08 170.649 316.199 170.649H287.21C285.329 170.649 283.526 171.395 282.196 172.723L257.682 197.203M326.227 178.32H293.71C291.829 178.32 290.026 179.066 288.696 180.394L264.182 204.874M252.364 184.811L282.196 155.02C283.526 153.692 285.329 152.946 287.21 152.946H309.699C311.58 152.946 313.383 152.2 314.713 150.872L317.364 148.226M319.136 126.982L311.759 134.35C310.429 135.678 308.625 136.424 306.745 136.424H287.21C285.329 136.424 283.526 137.17 282.196 138.498L245.864 174.78M292.545 111.05H276.573C274.693 111.05 272.889 111.796 271.559 113.124L225.182 159.437M235.818 167.699L274.514 129.056C275.844 127.729 277.647 126.982 279.528 126.982H298.472C300.353 126.982 302.156 126.236 303.486 124.908L318.241 110.174C319.571 108.846 321.375 108.1 323.255 108.1H336.864M135.364 108.1H151.336C153.216 108.1 155.02 108.846 156.35 110.174L202.727 156.487M99.9091 113.41L130.636 144.095M130.636 144.095L159.591 173.01M130.636 144.095H142.472C144.353 144.095 146.156 144.841 147.486 146.169L173.182 171.829M130.636 126.982H147.199C149.08 126.982 150.883 127.729 152.213 129.056L182.636 159.437M114.682 138.784L153.091 177.14M101.682 156.487H117.063C118.943 156.487 120.747 157.233 122.077 158.561L147.773 184.221M98.1364 182.451L111.423 195.719C112.753 197.047 114.557 197.793 116.437 197.793H142.455M111.727 173.01H115.881C117.762 173.01 119.565 173.756 120.895 175.084L130.636 184.811M245.864 111.05V124.908L215.71 155.02M229.318 122.852V132.293L213.955 147.636L213.364 148.226M202.727 115.771V150.872M176.136 111.05L195.636 130.523L198.591 133.473V147.636M341 197.203H316.773L301.409 181.861M329.182 214.906H313.227L297.864 199.564M338.045 231.428H291.364M325.045 240.28H313.227H294.909M335.682 265.654L324.455 254.442H296.091M339.227 284.537H321.213L298.759 262.113M95.7727 277.455H105.227L114.682 268.014H144.227M99.9091 257.392H119.409L135.955 240.87M111.423 240.28H121.773L138.318 223.757M96.9545 231.428H120.608L147.199 204.874M105.818 215.496H119.409H138.318M94 197.203H102.864L108.182 202.514H115.881L120.608 207.235H139.5M185 360.658L212.773 332.924M203.909 367.149V354.757L222.227 336.464M226.364 364.199V332.03M247.045 368.026V354.757L219.864 327.613" stroke="url(#paint4_radial_796_12665)" stroke-width="2" stroke-linecap="round"/>
<circle cx="327.614" cy="360.717" r="4.38261" fill="url(#paint5_linear_796_12665)"/>
<circle cx="339.383" cy="323.482" r="4.38261" fill="url(#paint6_linear_796_12665)"/>
<circle cx="187.37" cy="351.952" r="4.38261" fill="url(#paint7_linear_796_12665)"/>
<circle cx="288.717" cy="356.882" r="8.21739" fill="url(#paint8_linear_796_12665)"/>
<circle cx="289" cy="324.1" r="3" fill="url(#paint9_linear_796_12665)"/>
<circle cx="329" cy="242.1" r="3" fill="url(#paint10_linear_796_12665)"/>
<circle cx="337" cy="205.1" r="3" fill="url(#paint11_linear_796_12665)"/>
<circle cx="344" cy="167.1" r="3" fill="url(#paint12_linear_796_12665)"/>
<circle cx="289" cy="149.1" r="3" fill="url(#paint13_linear_796_12665)"/>
<circle cx="278" cy="131.1" r="3" fill="url(#paint14_linear_796_12665)"/>
<circle cx="162" cy="146.1" r="3" fill="url(#paint15_linear_796_12665)"/>
<circle cx="114" cy="205.1" r="3" fill="url(#paint16_linear_796_12665)"/>
<circle cx="125" cy="250.1" r="3" fill="url(#paint17_linear_796_12665)"/>
<circle cx="115" cy="272.1" r="3" fill="url(#paint18_linear_796_12665)"/>
<circle cx="154" cy="323.1" r="3" fill="url(#paint19_linear_796_12665)"/>
<circle cx="176" cy="331.1" r="3" fill="url(#paint20_linear_796_12665)"/>
<circle cx="158" cy="347.1" r="3" fill="url(#paint21_linear_796_12665)"/>
<circle cx="228" cy="346.1" r="3" fill="url(#paint22_linear_796_12665)"/>
<circle cx="317" cy="283.1" r="4" fill="url(#paint23_linear_796_12665)"/>
<circle cx="312.274" cy="343.187" r="5.47826" fill="url(#paint24_linear_796_12665)"/>
<circle cx="317.122" cy="322.221" r="7.12174" fill="url(#paint25_linear_796_12665)"/>
<circle cx="250.122" cy="359.221" r="7.12174" fill="url(#paint26_linear_796_12665)"/>
<circle cx="236.122" cy="388.221" r="7.12174" fill="url(#paint27_linear_796_12665)"/>
<circle cx="205.448" cy="357.978" r="7.12174" fill="url(#paint28_linear_796_12665)"/>
<circle cx="190" cy="380.1" r="5" fill="url(#paint29_linear_796_12665)"/>
<circle cx="272" cy="383.1" r="5" fill="url(#paint30_linear_796_12665)"/>
<circle cx="338.383" cy="301.482" r="4.38261" fill="url(#paint31_linear_796_12665)"/>
<circle cx="9.86087" cy="9.86087" r="9.86087" transform="matrix(-1 0 0 1 121.631 345.378)" fill="url(#paint32_linear_796_12665)"/>
<circle cx="8.21739" cy="8.21739" r="8.21739" transform="matrix(-1 0 0 1 118.344 307.03)" fill="url(#paint33_linear_796_12665)"/>
<circle cx="3.83478" cy="3.83478" r="3.83478" transform="matrix(-1 0 0 1 144.64 357.43)" fill="url(#paint34_linear_796_12665)"/>
<circle cx="3.83478" cy="3.83478" r="3.83478" transform="matrix(-1 0 0 1 358.67 287.1)" fill="url(#paint35_linear_796_12665)"/>
<circle cx="98.8348" cy="264.934" r="3.83478" fill="url(#paint36_linear_796_12665)"/>
<circle cx="3.28696" cy="3.28696" r="3.28696" transform="matrix(-1 0 0 1 221.574 375.1)" fill="url(#paint37_linear_796_12665)"/>
<circle cx="7.66957" cy="7.66957" r="7.66957" transform="matrix(-1 0 0 1 144.64 335.517)" fill="url(#paint38_linear_796_12665)"/>
<circle cx="7.66957" cy="7.66957" r="7.66957" transform="matrix(-1 0 0 1 169.339 363.1)" fill="url(#paint39_linear_796_12665)"/>
<circle cx="7.66957" cy="7.66957" r="7.66957" transform="matrix(-1 0 0 1 350.34 257.1)" fill="url(#paint40_linear_796_12665)"/>
<circle cx="77.6696" cy="256.769" r="7.66957" fill="url(#paint41_linear_796_12665)"/>
<circle cx="3.28696" cy="3.28696" r="3.28696" transform="matrix(-1 0 0 1 124.917 328.943)" fill="url(#paint42_linear_796_12665)"/>
<circle cx="6.02609" cy="6.02609" r="6.02609" transform="matrix(-1 0 0 1 134.052 294.1)" fill="url(#paint43_linear_796_12665)"/>
<circle cx="6.02609" cy="6.02609" r="6.02609" transform="matrix(-1 0 0 1 86.0522 281.1)" fill="url(#paint44_linear_796_12665)"/>
<circle cx="4.38261" cy="4.38261" r="4.38261" transform="matrix(-1 0 0 1 110.674 287.308)" fill="url(#paint45_linear_796_12665)"/>
<circle cx="4.38261" cy="4.38261" r="4.38261" transform="matrix(1 0 0 -1 323.231 121.865)" fill="url(#paint46_linear_796_12665)"/>
<circle cx="6.57391" cy="6.57391" r="6.57391" transform="matrix(1 0 0 -1 238 129.247)" fill="url(#paint47_linear_796_12665)"/>
<circle cx="6.57391" cy="6.57391" r="6.57391" transform="matrix(1 0 0 -1 259 108.247)" fill="url(#paint48_linear_796_12665)"/>
<circle cx="6.57391" cy="6.57391" r="6.57391" transform="matrix(1 0 0 -1 215 101.247)" fill="url(#paint49_linear_796_12665)"/>
<circle cx="4.38261" cy="4.38261" r="4.38261" transform="matrix(1 0 0 -1 343 157.865)" fill="url(#paint50_linear_796_12665)"/>
<circle cx="8.21739" cy="8.21739" r="8.21739" transform="matrix(1 0 0 -1 281 116.535)" fill="url(#paint51_linear_796_12665)"/>
<circle cx="5.47826" cy="5.47826" r="5.47826" transform="matrix(1 0 0 -1 306.796 140.491)" fill="url(#paint52_linear_796_12665)"/>
<circle cx="3.83478" cy="3.83478" r="3.83478" transform="matrix(1 0 0 -1 323 152.769)" fill="url(#paint53_linear_796_12665)"/>
<circle cx="3.83478" cy="3.83478" r="3.83478" transform="matrix(1 0 0 -1 224.622 135.013)" fill="url(#paint54_linear_796_12665)"/>
<circle cx="3.83478" cy="3.83478" r="3.83478" transform="matrix(1 0 0 -1 175.318 124.056)" fill="url(#paint55_linear_796_12665)"/>
<circle cx="10.9565" cy="10.9565" r="10.9565" transform="matrix(1 0 0 -1 192.848 135.013)" fill="url(#paint56_linear_796_12665)"/>
<circle cx="7" cy="7" r="7" transform="matrix(1 0 0 -1 151 108.1)" fill="url(#paint57_linear_796_12665)"/>
<circle cx="4.38261" cy="4.38261" r="4.38261" transform="matrix(1 0 0 -1 328 184.865)" fill="url(#paint58_linear_796_12665)"/>
<circle cx="112" cy="123.1" r="7" transform="rotate(180 112 123.1)" fill="url(#paint59_linear_796_12665)"/>
<circle cx="103.217" cy="161.317" r="8.21739" transform="rotate(180 103.217 161.317)" fill="url(#paint60_linear_796_12665)"/>
<circle cx="355.218" cy="216.317" r="8.21739" transform="rotate(180 355.218 216.317)" fill="url(#paint61_linear_796_12665)"/>
<circle cx="8.21739" cy="8.21739" r="8.21739" transform="matrix(1 0 0 -1 82 224.856)" fill="url(#paint62_linear_796_12665)"/>
<circle cx="140.805" cy="116.935" r="3.83478" transform="rotate(180 140.805 116.935)" fill="url(#paint63_linear_796_12665)"/>
<circle cx="136.97" cy="135.013" r="7.66957" transform="rotate(180 136.97 135.013)" fill="url(#paint64_linear_796_12665)"/>
<circle cx="85.6698" cy="133.769" r="7.66957" transform="rotate(180 85.6698 133.769)" fill="url(#paint65_linear_796_12665)"/>
<circle cx="121.631" cy="145.969" r="3.28696" transform="rotate(180 121.631 145.969)" fill="url(#paint66_linear_796_12665)"/>
<circle cx="359.287" cy="188.387" r="3.28696" transform="rotate(180 359.287 188.387)" fill="url(#paint67_linear_796_12665)"/>
<circle cx="3.28696" cy="3.28696" r="3.28696" transform="matrix(1 0 0 -1 83 197.674)" fill="url(#paint68_linear_796_12665)"/>
<circle cx="118.891" cy="178.291" r="2.73913" transform="rotate(180 118.891 178.291)" fill="url(#paint69_linear_796_12665)"/>
<circle cx="69.7389" cy="169.839" r="2.73913" transform="rotate(180 69.7389 169.839)" fill="url(#paint70_linear_796_12665)"/>
<circle cx="371.739" cy="236.839" r="2.73913" transform="rotate(180 371.739 236.839)" fill="url(#paint71_linear_796_12665)"/>
<circle cx="2.73913" cy="2.73913" r="2.73913" transform="matrix(1 0 0 -1 103.005 234.717)" fill="url(#paint72_linear_796_12665)"/>
<circle cx="93.3825" cy="179.482" r="4.38261" transform="rotate(180 93.3825 179.482)" fill="url(#paint73_linear_796_12665)"/>
<circle cx="70.3825" cy="214.482" r="4.38261" transform="rotate(180 70.3825 214.482)" fill="url(#paint74_linear_796_12665)"/>
<circle cx="352.383" cy="242.482" r="4.38261" transform="rotate(180 352.383 242.482)" fill="url(#paint75_linear_796_12665)"/>
<circle cx="4.38261" cy="4.38261" r="4.38261" transform="matrix(1 0 0 -1 89 243.865)" fill="url(#paint76_linear_796_12665)"/>
<g opacity="0.5" filter="url(#filter2_f_796_12665)">
<path d="M126 173.155C126 159.995 134.597 148.433 147.055 144.839L151.357 143.598C195.251 130.934 241.749 130.934 285.643 143.598L289.945 144.839C302.403 148.433 311 159.995 311 173.155V258.858C311 280.623 301.045 301.152 284.06 314.412L256.383 336.019C234.043 353.46 202.957 353.46 180.617 336.019L152.94 314.412C135.955 301.152 126 280.623 126 258.858V173.155Z" fill="#000206" fill-opacity="0.5"/>
</g>
<g opacity="0.5" filter="url(#filter3_f_796_12665)">
<path d="M107 159.148C107 143.294 117.362 129.367 132.38 125.037L137.565 123.542C190.476 108.286 246.524 108.286 299.435 123.542L304.62 125.037C319.638 129.367 330 143.294 330 159.148V262.39C330 288.609 318 313.339 297.527 329.313L264.164 355.342C237.236 376.352 199.764 376.352 172.836 355.342L139.473 329.313C119 313.339 107 288.609 107 262.39V159.148Z" fill="#000206" fill-opacity="0.5"/>
</g>
<g opacity="0.5" filter="url(#filter4_f_796_12665)">
<path d="M78 138.137C78 118.243 91.0575 100.767 109.981 95.3336L116.515 93.4575C183.187 74.3136 253.813 74.3136 320.485 93.4575L327.019 95.3336C345.942 100.767 359 118.243 359 138.137V267.688C359 300.589 343.879 331.621 318.081 351.665L276.041 384.327C242.109 410.69 194.891 410.69 160.959 384.327L118.919 351.665C93.1209 331.621 78 300.589 78 267.688V138.137Z" fill="#000206"/>
</g>
<g filter="url(#filter5_i_796_12665)">
<path d="M140 183.979C140 172.9 147.295 163.167 157.868 160.141L161.519 159.096C198.77 148.434 238.23 148.434 275.481 159.096L279.132 160.141C289.704 163.167 297 172.9 297 183.979V256.129C297 274.452 288.552 291.734 274.138 302.897L250.649 321.088C231.691 335.77 205.309 335.77 186.351 321.088L162.862 302.897C148.448 291.734 140 274.452 140 256.129V183.979Z" fill="url(#paint77_linear_796_12665)"/>
<path d="M140 183.979C140 172.9 147.295 163.167 157.868 160.141L161.519 159.096C198.77 148.434 238.23 148.434 275.481 159.096L279.132 160.141C289.704 163.167 297 172.9 297 183.979V256.129C297 274.452 288.552 291.734 274.138 302.897L250.649 321.088C231.691 335.77 205.309 335.77 186.351 321.088L162.862 302.897C148.448 291.734 140 274.452 140 256.129V183.979Z" fill="#000206" fill-opacity="0.5"/>
</g>
<path d="M295 183.979V256.129C295 273.837 286.835 290.534 272.913 301.316L249.425 319.507C231.187 333.631 205.813 333.631 187.575 319.507L164.087 301.316C150.165 290.534 142 273.837 142 256.129V183.979C142 173.783 148.713 164.841 158.419 162.064L162.069 161.019C198.961 150.46 238.039 150.46 274.931 161.019L278.581 162.064C288.287 164.841 295 173.783 295 183.979Z" stroke="url(#paint78_linear_796_12665)" stroke-width="4"/>
<path d="M160 194.61C160 186.351 165.437 179.095 173.316 176.839L176.036 176.06C203.797 168.113 233.203 168.113 260.964 176.06L263.684 176.839C271.563 179.095 277 186.351 277 194.61V253.467C277 267.126 270.704 280.009 259.962 288.331L242.458 301.891C228.33 312.836 208.67 312.836 194.542 301.891L177.038 288.331C166.296 280.009 160 267.126 160 253.467V194.61Z" fill="url(#paint79_linear_796_12665)"/>
<defs>
<filter id="filter0_f_796_12665" x="61.8" y="70.8996" width="313.4" height="341.4" filterUnits="userSpaceOnUse" color-interpolation-filters="sRGB">
<feFlood flood-opacity="0" result="BackgroundImageFix"/>
<feBlend mode="normal" in="SourceGraphic" in2="BackgroundImageFix" result="shape"/>
<feGaussianBlur stdDeviation="31.6" result="effect1_foregroundBlur_796_12665"/>
</filter>
<filter id="filter1_f_796_12665" x="0.799999" y="0.899609" width="435.4" height="481.4" filterUnits="userSpaceOnUse" color-interpolation-filters="sRGB">
<feFlood flood-opacity="0" result="BackgroundImageFix"/>
<feBlend mode="normal" in="SourceGraphic" in2="BackgroundImageFix" result="shape"/>
<feGaussianBlur stdDeviation="31.6" result="effect1_foregroundBlur_796_12665"/>
</filter>
<filter id="filter2_f_796_12665" x="122" y="130.1" width="193" height="223" filterUnits="userSpaceOnUse" color-interpolation-filters="sRGB">
<feFlood flood-opacity="0" result="BackgroundImageFix"/>
<feBlend mode="normal" in="SourceGraphic" in2="BackgroundImageFix" result="shape"/>
<feGaussianBlur stdDeviation="2" result="effect1_foregroundBlur_796_12665"/>
</filter>
<filter id="filter3_f_796_12665" x="103" y="108.1" width="231" height="267" filterUnits="userSpaceOnUse" color-interpolation-filters="sRGB">
<feFlood flood-opacity="0" result="BackgroundImageFix"/>
<feBlend mode="normal" in="SourceGraphic" in2="BackgroundImageFix" result="shape"/>
<feGaussianBlur stdDeviation="2" result="effect1_foregroundBlur_796_12665"/>
</filter>
<filter id="filter4_f_796_12665" x="19.8" y="20.8996" width="397.4" height="441.4" filterUnits="userSpaceOnUse" color-interpolation-filters="sRGB">
<feFlood flood-opacity="0" result="BackgroundImageFix"/>
<feBlend mode="normal" in="SourceGraphic" in2="BackgroundImageFix" result="shape"/>
<feGaussianBlur stdDeviation="29.1" result="effect1_foregroundBlur_796_12665"/>
</filter>
<filter id="filter5_i_796_12665" x="140" y="151.1" width="157" height="189" filterUnits="userSpaceOnUse" color-interpolation-filters="sRGB">
<feFlood flood-opacity="0" result="BackgroundImageFix"/>
<feBlend mode="normal" in="SourceGraphic" in2="BackgroundImageFix" result="shape"/>
<feColorMatrix in="SourceAlpha" type="matrix" values="0 0 0 0 0 0 0 0 0 0 0 0 0 0 0 0 0 0 127 0" result="hardAlpha"/>
<feMorphology radius="3.42857" operator="dilate" in="SourceAlpha" result="effect1_innerShadow_796_12665"/>
<feOffset dy="8"/>
<feGaussianBlur stdDeviation="10"/>
<feComposite in2="hardAlpha" operator="arithmetic" k2="-1" k3="1"/>
<feColorMatrix type="matrix" values="0 0 0 0 0 0 0 0 0 0 0 0 0 0 0 0 0 0 0.5 0"/>
<feBlend mode="normal" in2="shape" result="effect1_innerShadow_796_12665"/>
</filter>
<linearGradient id="paint0_linear_796_12665" x1="-237.886" y1="173.101" x2="108.887" y2="673.45" gradientUnits="userSpaceOnUse">
<stop stop-color="#0386FF"/>
<stop offset="1" stop-color="#12FF80"/>
</linearGradient>
<linearGradient id="paint1_linear_796_12665" x1="157.057" y1="173.191" x2="307.199" y2="296.317" gradientUnits="userSpaceOnUse">
<stop stop-color="#12FF80"/>
<stop offset="1" stop-color="#0364FF"/>
</linearGradient>
<linearGradient id="paint2_linear_796_12665" x1="-535.636" y1="128.497" x2="36.7924" y2="955.058" gradientUnits="userSpaceOnUse">
<stop stop-color="#0386FF"/>
<stop offset="1" stop-color="#12FF80"/>
</linearGradient>
<linearGradient id="paint3_linear_796_12665" x1="116.971" y1="128.645" x2="364.917" y2="332.13" gradientUnits="userSpaceOnUse">
<stop stop-color="#12FF80"/>
<stop offset="1" stop-color="#0364FF"/>
</linearGradient>
<radialGradient id="paint4_radial_796_12665" cx="0" cy="0" r="1" gradientUnits="userSpaceOnUse" gradientTransform="translate(217.5 239.1) rotate(90) scale(131 123.5)">
<stop stop-color="#12FF80"/>
<stop offset="0.536458" stop-color="#12FF80"/>
<stop offset="1" stop-color="#12FF80" stop-opacity="0"/>
</radialGradient>
<linearGradient id="paint5_linear_796_12665" x1="324.734" y1="358.188" x2="330.748" y2="364.072" gradientUnits="userSpaceOnUse">
<stop stop-color="#12FF80"/>
<stop offset="1" stop-color="#0364FF"/>
</linearGradient>
<linearGradient id="paint6_linear_796_12665" x1="336.503" y1="320.953" x2="342.517" y2="326.837" gradientUnits="userSpaceOnUse">
<stop stop-color="#12FF80"/>
<stop offset="1" stop-color="#0364FF"/>
</linearGradient>
<linearGradient id="paint7_linear_796_12665" x1="184.49" y1="349.423" x2="190.504" y2="355.307" gradientUnits="userSpaceOnUse">
<stop stop-color="#12FF80"/>
<stop offset="1" stop-color="#0364FF"/>
</linearGradient>
<linearGradient id="paint8_linear_796_12665" x1="283.317" y1="352.14" x2="294.594" y2="363.173" gradientUnits="userSpaceOnUse">
<stop stop-color="#12FF80"/>
<stop offset="1" stop-color="#0364FF"/>
</linearGradient>
<linearGradient id="paint9_linear_796_12665" x1="287.029" y1="322.368" x2="291.145" y2="326.396" gradientUnits="userSpaceOnUse">
<stop stop-color="#12FF80"/>
<stop offset="1" stop-color="#0364FF"/>
</linearGradient>
<linearGradient id="paint10_linear_796_12665" x1="327.029" y1="240.368" x2="331.145" y2="244.396" gradientUnits="userSpaceOnUse">
<stop stop-color="#12FF80"/>
<stop offset="1" stop-color="#0364FF"/>
</linearGradient>
<linearGradient id="paint11_linear_796_12665" x1="335.029" y1="203.368" x2="339.145" y2="207.396" gradientUnits="userSpaceOnUse">
<stop stop-color="#12FF80"/>
<stop offset="1" stop-color="#0364FF"/>
</linearGradient>
<linearGradient id="paint12_linear_796_12665" x1="342.029" y1="165.368" x2="346.145" y2="169.396" gradientUnits="userSpaceOnUse">
<stop stop-color="#12FF80"/>
<stop offset="1" stop-color="#0364FF"/>
</linearGradient>
<linearGradient id="paint13_linear_796_12665" x1="287.029" y1="147.368" x2="291.145" y2="151.396" gradientUnits="userSpaceOnUse">
<stop stop-color="#12FF80"/>
<stop offset="1" stop-color="#0364FF"/>
</linearGradient>
<linearGradient id="paint14_linear_796_12665" x1="276.029" y1="129.368" x2="280.145" y2="133.396" gradientUnits="userSpaceOnUse">
<stop stop-color="#12FF80"/>
<stop offset="1" stop-color="#0364FF"/>
</linearGradient>
<linearGradient id="paint15_linear_796_12665" x1="160.029" y1="144.368" x2="164.145" y2="148.396" gradientUnits="userSpaceOnUse">
<stop stop-color="#12FF80"/>
<stop offset="1" stop-color="#0364FF"/>
</linearGradient>
<linearGradient id="paint16_linear_796_12665" x1="112.029" y1="203.368" x2="116.145" y2="207.396" gradientUnits="userSpaceOnUse">
<stop stop-color="#12FF80"/>
<stop offset="1" stop-color="#0364FF"/>
</linearGradient>
<linearGradient id="paint17_linear_796_12665" x1="123.029" y1="248.368" x2="127.145" y2="252.396" gradientUnits="userSpaceOnUse">
<stop stop-color="#12FF80"/>
<stop offset="1" stop-color="#0364FF"/>
</linearGradient>
<linearGradient id="paint18_linear_796_12665" x1="113.029" y1="270.368" x2="117.145" y2="274.396" gradientUnits="userSpaceOnUse">
<stop stop-color="#12FF80"/>
<stop offset="1" stop-color="#0364FF"/>
</linearGradient>
<linearGradient id="paint19_linear_796_12665" x1="152.029" y1="321.368" x2="156.145" y2="325.396" gradientUnits="userSpaceOnUse">
<stop stop-color="#12FF80"/>
<stop offset="1" stop-color="#0364FF"/>
</linearGradient>
<linearGradient id="paint20_linear_796_12665" x1="174.029" y1="329.368" x2="178.145" y2="333.396" gradientUnits="userSpaceOnUse">
<stop stop-color="#12FF80"/>
<stop offset="1" stop-color="#0364FF"/>
</linearGradient>
<linearGradient id="paint21_linear_796_12665" x1="156.029" y1="345.368" x2="160.145" y2="349.396" gradientUnits="userSpaceOnUse">
<stop stop-color="#12FF80"/>
<stop offset="1" stop-color="#0364FF"/>
</linearGradient>
<linearGradient id="paint22_linear_796_12665" x1="226.029" y1="344.368" x2="230.145" y2="348.396" gradientUnits="userSpaceOnUse">
<stop stop-color="#12FF80"/>
<stop offset="1" stop-color="#0364FF"/>
</linearGradient>
<linearGradient id="paint23_linear_796_12665" x1="314.371" y1="280.791" x2="319.861" y2="286.161" gradientUnits="userSpaceOnUse">
<stop stop-color="#12FF80"/>
<stop offset="1" stop-color="#0364FF"/>
</linearGradient>
<linearGradient id="paint24_linear_796_12665" x1="308.674" y1="340.025" x2="316.192" y2="347.38" gradientUnits="userSpaceOnUse">
<stop stop-color="#12FF80"/>
<stop offset="1" stop-color="#0364FF"/>
</linearGradient>
<linearGradient id="paint25_linear_796_12665" x1="312.442" y1="318.112" x2="322.215" y2="327.673" gradientUnits="userSpaceOnUse">
<stop stop-color="#12FF80"/>
<stop offset="1" stop-color="#0364FF"/>
</linearGradient>
<linearGradient id="paint26_linear_796_12665" x1="245.442" y1="355.112" x2="255.215" y2="364.673" gradientUnits="userSpaceOnUse">
<stop stop-color="#12FF80"/>
<stop offset="1" stop-color="#0364FF"/>
</linearGradient>
<linearGradient id="paint27_linear_796_12665" x1="231.442" y1="384.112" x2="241.215" y2="393.673" gradientUnits="userSpaceOnUse">
<stop stop-color="#12FF80"/>
<stop offset="1" stop-color="#0364FF"/>
</linearGradient>
<linearGradient id="paint28_linear_796_12665" x1="200.768" y1="353.868" x2="210.541" y2="363.429" gradientUnits="userSpaceOnUse">
<stop stop-color="#12FF80"/>
<stop offset="1" stop-color="#0364FF"/>
</linearGradient>
<linearGradient id="paint29_linear_796_12665" x1="186.714" y1="377.214" x2="193.576" y2="383.927" gradientUnits="userSpaceOnUse">
<stop stop-color="#12FF80"/>
<stop offset="1" stop-color="#0364FF"/>
</linearGradient>
<linearGradient id="paint30_linear_796_12665" x1="268.714" y1="380.214" x2="275.576" y2="386.927" gradientUnits="userSpaceOnUse">
<stop stop-color="#12FF80"/>
<stop offset="1" stop-color="#0364FF"/>
</linearGradient>
<linearGradient id="paint31_linear_796_12665" x1="335.503" y1="298.953" x2="341.517" y2="304.837" gradientUnits="userSpaceOnUse">
<stop stop-color="#12FF80"/>
<stop offset="1" stop-color="#0364FF"/>
</linearGradient>
<linearGradient id="paint32_linear_796_12665" x1="3.38087" y1="4.17041" x2="16.913" y2="17.409" gradientUnits="userSpaceOnUse">
<stop stop-color="#12FF80"/>
<stop offset="1" stop-color="#0364FF"/>
</linearGradient>
<linearGradient id="paint33_linear_796_12665" x1="2.81739" y1="3.47534" x2="14.0942" y2="14.5075" gradientUnits="userSpaceOnUse">
<stop stop-color="#12FF80"/>
<stop offset="1" stop-color="#0364FF"/>
</linearGradient>
<linearGradient id="paint34_linear_796_12665" x1="1.31478" y1="1.62183" x2="6.57729" y2="6.77015" gradientUnits="userSpaceOnUse">
<stop stop-color="#12FF80"/>
<stop offset="1" stop-color="#0364FF"/>
</linearGradient>
<linearGradient id="paint35_linear_796_12665" x1="1.31478" y1="1.62183" x2="6.57729" y2="6.77015" gradientUnits="userSpaceOnUse">
<stop stop-color="#12FF80"/>
<stop offset="1" stop-color="#0364FF"/>
</linearGradient>
<linearGradient id="paint36_linear_796_12665" x1="96.3148" y1="262.721" x2="101.577" y2="267.87" gradientUnits="userSpaceOnUse">
<stop stop-color="#12FF80"/>
<stop offset="1" stop-color="#0364FF"/>
</linearGradient>
<linearGradient id="paint37_linear_796_12665" x1="1.12696" y1="1.39014" x2="5.63768" y2="5.80299" gradientUnits="userSpaceOnUse">
<stop stop-color="#12FF80"/>
<stop offset="1" stop-color="#0364FF"/>
</linearGradient>
<linearGradient id="paint38_linear_796_12665" x1="2.62956" y1="3.24365" x2="13.1546" y2="13.5403" gradientUnits="userSpaceOnUse">
<stop stop-color="#12FF80"/>
<stop offset="1" stop-color="#0364FF"/>
</linearGradient>
<linearGradient id="paint39_linear_796_12665" x1="2.62956" y1="3.24365" x2="13.1546" y2="13.5403" gradientUnits="userSpaceOnUse">
<stop stop-color="#12FF80"/>
<stop offset="1" stop-color="#0364FF"/>
</linearGradient>
<linearGradient id="paint40_linear_796_12665" x1="2.62956" y1="3.24365" x2="13.1546" y2="13.5403" gradientUnits="userSpaceOnUse">
<stop stop-color="#12FF80"/>
<stop offset="1" stop-color="#0364FF"/>
</linearGradient>
<linearGradient id="paint41_linear_796_12665" x1="72.6296" y1="252.343" x2="83.1546" y2="262.64" gradientUnits="userSpaceOnUse">
<stop stop-color="#12FF80"/>
<stop offset="1" stop-color="#0364FF"/>
</linearGradient>
<linearGradient id="paint42_linear_796_12665" x1="1.12696" y1="1.39014" x2="5.63768" y2="5.80299" gradientUnits="userSpaceOnUse">
<stop stop-color="#12FF80"/>
<stop offset="1" stop-color="#0364FF"/>
</linearGradient>
<linearGradient id="paint43_linear_796_12665" x1="2.06609" y1="2.54858" x2="10.3357" y2="10.6388" gradientUnits="userSpaceOnUse">
<stop stop-color="#12FF80"/>
<stop offset="1" stop-color="#0364FF"/>
</linearGradient>
<linearGradient id="paint44_linear_796_12665" x1="2.06609" y1="2.54858" x2="10.3357" y2="10.6388" gradientUnits="userSpaceOnUse">
<stop stop-color="#12FF80"/>
<stop offset="1" stop-color="#0364FF"/>
</linearGradient>
<linearGradient id="paint45_linear_796_12665" x1="1.50261" y1="1.85351" x2="7.5169" y2="7.73732" gradientUnits="userSpaceOnUse">
<stop stop-color="#12FF80"/>
<stop offset="1" stop-color="#0364FF"/>
</linearGradient>
<linearGradient id="paint46_linear_796_12665" x1="1.50261" y1="1.85351" x2="7.5169" y2="7.73732" gradientUnits="userSpaceOnUse">
<stop stop-color="#12FF80"/>
<stop offset="1" stop-color="#0364FF"/>
</linearGradient>
<linearGradient id="paint47_linear_796_12665" x1="2.25391" y1="2.78027" x2="11.2754" y2="11.606" gradientUnits="userSpaceOnUse">
<stop stop-color="#12FF80"/>
<stop offset="1" stop-color="#0364FF"/>
</linearGradient>
<linearGradient id="paint48_linear_796_12665" x1="2.25391" y1="2.78027" x2="11.2754" y2="11.606" gradientUnits="userSpaceOnUse">
<stop stop-color="#12FF80"/>
<stop offset="1" stop-color="#0364FF"/>
</linearGradient>
<linearGradient id="paint49_linear_796_12665" x1="2.25391" y1="2.78027" x2="11.2754" y2="11.606" gradientUnits="userSpaceOnUse">
<stop stop-color="#12FF80"/>
<stop offset="1" stop-color="#0364FF"/>
</linearGradient>
<linearGradient id="paint50_linear_796_12665" x1="1.50261" y1="1.85351" x2="7.5169" y2="7.73732" gradientUnits="userSpaceOnUse">
<stop stop-color="#12FF80"/>
<stop offset="1" stop-color="#0364FF"/>
</linearGradient>
<linearGradient id="paint51_linear_796_12665" x1="2.81739" y1="3.47534" x2="14.0942" y2="14.5075" gradientUnits="userSpaceOnUse">
<stop stop-color="#12FF80"/>
<stop offset="1" stop-color="#0364FF"/>
</linearGradient>
<linearGradient id="paint52_linear_796_12665" x1="1.87826" y1="2.31689" x2="9.39613" y2="9.67165" gradientUnits="userSpaceOnUse">
<stop stop-color="#12FF80"/>
<stop offset="1" stop-color="#0364FF"/>
</linearGradient>
<linearGradient id="paint53_linear_796_12665" x1="1.31478" y1="1.62183" x2="6.57729" y2="6.77015" gradientUnits="userSpaceOnUse">
<stop stop-color="#12FF80"/>
<stop offset="1" stop-color="#0364FF"/>
</linearGradient>
<linearGradient id="paint54_linear_796_12665" x1="1.31478" y1="1.62183" x2="6.57729" y2="6.77015" gradientUnits="userSpaceOnUse">
<stop stop-color="#12FF80"/>
<stop offset="1" stop-color="#0364FF"/>
</linearGradient>
<linearGradient id="paint55_linear_796_12665" x1="1.31478" y1="1.62183" x2="6.57729" y2="6.77015" gradientUnits="userSpaceOnUse">
<stop stop-color="#12FF80"/>
<stop offset="1" stop-color="#0364FF"/>
</linearGradient>
<linearGradient id="paint56_linear_796_12665" x1="3.75652" y1="4.63379" x2="18.7923" y2="19.3433" gradientUnits="userSpaceOnUse">
<stop stop-color="#12FF80"/>
<stop offset="1" stop-color="#0364FF"/>
</linearGradient>
<linearGradient id="paint57_linear_796_12665" x1="2.4" y1="2.96047" x2="12.0062" y2="12.3582" gradientUnits="userSpaceOnUse">
<stop stop-color="#12FF80"/>
<stop offset="1" stop-color="#0364FF"/>
</linearGradient>
<linearGradient id="paint58_linear_796_12665" x1="1.50261" y1="1.85351" x2="7.5169" y2="7.73732" gradientUnits="userSpaceOnUse">
<stop stop-color="#12FF80"/>
<stop offset="1" stop-color="#0364FF"/>
</linearGradient>
<linearGradient id="paint59_linear_796_12665" x1="107.4" y1="119.06" x2="117.007" y2="128.458" gradientUnits="userSpaceOnUse">
<stop stop-color="#12FF80"/>
<stop offset="1" stop-color="#0364FF"/>
</linearGradient>
<linearGradient id="paint60_linear_796_12665" x1="97.8172" y1="156.575" x2="109.094" y2="167.607" gradientUnits="userSpaceOnUse">
<stop stop-color="#12FF80"/>
<stop offset="1" stop-color="#0364FF"/>
</linearGradient>
<linearGradient id="paint61_linear_796_12665" x1="349.818" y1="211.575" x2="361.094" y2="222.607" gradientUnits="userSpaceOnUse">
<stop stop-color="#12FF80"/>
<stop offset="1" stop-color="#0364FF"/>
</linearGradient>
<linearGradient id="paint62_linear_796_12665" x1="2.81739" y1="3.47534" x2="14.0942" y2="14.5075" gradientUnits="userSpaceOnUse">
<stop stop-color="#12FF80"/>
<stop offset="1" stop-color="#0364FF"/>
</linearGradient>
<linearGradient id="paint63_linear_796_12665" x1="138.285" y1="114.722" x2="143.547" y2="119.87" gradientUnits="userSpaceOnUse">
<stop stop-color="#12FF80"/>
<stop offset="1" stop-color="#0364FF"/>
</linearGradient>
<linearGradient id="paint64_linear_796_12665" x1="131.93" y1="130.587" x2="142.455" y2="140.884" gradientUnits="userSpaceOnUse">
<stop stop-color="#12FF80"/>
<stop offset="1" stop-color="#0364FF"/>
</linearGradient>
<linearGradient id="paint65_linear_796_12665" x1="80.6298" y1="129.343" x2="91.1548" y2="139.64" gradientUnits="userSpaceOnUse">
<stop stop-color="#12FF80"/>
<stop offset="1" stop-color="#0364FF"/>
</linearGradient>
<linearGradient id="paint66_linear_796_12665" x1="119.471" y1="144.072" x2="123.981" y2="148.485" gradientUnits="userSpaceOnUse">
<stop stop-color="#12FF80"/>
<stop offset="1" stop-color="#0364FF"/>
</linearGradient>
<linearGradient id="paint67_linear_796_12665" x1="357.127" y1="186.49" x2="361.638" y2="190.903" gradientUnits="userSpaceOnUse">
<stop stop-color="#12FF80"/>
<stop offset="1" stop-color="#0364FF"/>
</linearGradient>
<linearGradient id="paint68_linear_796_12665" x1="1.12696" y1="1.39014" x2="5.63768" y2="5.80299" gradientUnits="userSpaceOnUse">
<stop stop-color="#12FF80"/>
<stop offset="1" stop-color="#0364FF"/>
</linearGradient>
<linearGradient id="paint69_linear_796_12665" x1="117.091" y1="176.71" x2="120.85" y2="180.388" gradientUnits="userSpaceOnUse">
<stop stop-color="#12FF80"/>
<stop offset="1" stop-color="#0364FF"/>
</linearGradient>
<linearGradient id="paint70_linear_796_12665" x1="67.9389" y1="168.258" x2="71.6978" y2="171.935" gradientUnits="userSpaceOnUse">
<stop stop-color="#12FF80"/>
<stop offset="1" stop-color="#0364FF"/>
</linearGradient>
<linearGradient id="paint71_linear_796_12665" x1="369.939" y1="235.258" x2="373.698" y2="238.935" gradientUnits="userSpaceOnUse">
<stop stop-color="#12FF80"/>
<stop offset="1" stop-color="#0364FF"/>
</linearGradient>
<linearGradient id="paint72_linear_796_12665" x1="0.93913" y1="1.15845" x2="4.69806" y2="4.83582" gradientUnits="userSpaceOnUse">
<stop stop-color="#12FF80"/>
<stop offset="1" stop-color="#0364FF"/>
</linearGradient>
<linearGradient id="paint73_linear_796_12665" x1="90.5025" y1="176.953" x2="96.5168" y2="182.837" gradientUnits="userSpaceOnUse">
<stop stop-color="#12FF80"/>
<stop offset="1" stop-color="#0364FF"/>
</linearGradient>
<linearGradient id="paint74_linear_796_12665" x1="67.5025" y1="211.953" x2="73.5168" y2="217.837" gradientUnits="userSpaceOnUse">
<stop stop-color="#12FF80"/>
<stop offset="1" stop-color="#0364FF"/>
</linearGradient>
<linearGradient id="paint75_linear_796_12665" x1="349.503" y1="239.953" x2="355.517" y2="245.837" gradientUnits="userSpaceOnUse">
<stop stop-color="#12FF80"/>
<stop offset="1" stop-color="#0364FF"/>
</linearGradient>
<linearGradient id="paint76_linear_796_12665" x1="1.50261" y1="1.85351" x2="7.5169" y2="7.73732" gradientUnits="userSpaceOnUse">
<stop stop-color="#12FF80"/>
<stop offset="1" stop-color="#0364FF"/>
</linearGradient>
<linearGradient id="paint77_linear_796_12665" x1="166.914" y1="184.009" x2="293.245" y2="287.327" gradientUnits="userSpaceOnUse">
<stop stop-color="#12FF80"/>
<stop offset="1" stop-color="#0364FF"/>
</linearGradient>
<linearGradient id="paint78_linear_796_12665" x1="166.914" y1="184.009" x2="293.245" y2="287.327" gradientUnits="userSpaceOnUse">
<stop stop-color="#12FF80"/>
<stop offset="1" stop-color="#0364FF"/>
</linearGradient>
<linearGradient id="paint79_linear_796_12665" x1="180.057" y1="199.704" x2="274.226" y2="276.695" gradientUnits="userSpaceOnUse">
<stop stop-color="#12FF80"/>
<stop offset="1" stop-color="#0364FF"/>
</linearGradient>
</defs>
</svg>
