<svg width="146" height="35" viewBox="0 0 146 35" fill="none" xmlns="http://www.w3.org/2000/svg">
<path fill-rule="evenodd" clip-rule="evenodd" d="M1.1496 6.48677C5.61304e-06 8.74444 0 11.6984 0 17.6063C0 23.5142 5.61304e-06 26.4682 1.1496 28.7259C2.16239 30.7092 3.77661 32.3233 5.76042 33.3361C8.01787 34.486 10.9718 34.486 16.8797 34.486C22.7876 34.486 25.7416 34.486 27.999 33.3361C29.9829 32.3233 31.5971 30.7092 32.6099 28.7259C33.7595 26.4682 33.7595 23.5142 33.7595 17.6063C33.7595 11.6984 33.7595 8.74444 32.6099 6.48677C31.5971 4.5034 29.9829 2.88928 27.999 1.8765C25.7416 0.726562 22.7876 0.726562 16.8797 0.726562C10.9718 0.726562 8.01787 0.726562 5.76042 1.8765C3.77661 2.88928 2.16239 4.5034 1.1496 6.48677ZM25.3036 9.83105C25.5994 9.83105 25.8784 9.9524 26.0845 10.1582C26.2906 10.3692 26.4061 10.654 26.4008 10.944C26.3484 14.0879 26.2267 16.4933 26.0001 18.3975C25.7789 20.3018 25.4466 21.7154 24.9456 22.8602C24.608 23.625 24.1904 24.258 23.7 24.796C23.0408 25.5081 22.2866 26.0251 21.4639 26.5157C21.1121 26.7261 20.7461 26.9338 20.3623 27.1517C19.5441 27.6166 18.6432 28.1278 17.6233 28.8103C17.2546 29.0581 16.774 29.0581 16.4053 28.8103C15.3694 28.1198 14.457 27.6023 13.6308 27.1337C13.4478 27.0294 13.2684 26.9276 13.0925 26.8269C12.1268 26.2677 11.257 25.735 10.4974 24.9648C9.99102 24.4584 9.55303 23.8412 9.20478 23.108C8.73037 22.1269 8.40789 20.94 8.17068 19.4051C7.85441 17.3531 7.69628 14.6682 7.63853 10.944C7.6332 10.654 7.74335 10.3692 7.94946 10.1582C8.15469 9.9524 8.43986 9.83105 8.7357 9.83105H9.1888C10.5871 9.83638 13.6726 9.69921 16.3414 7.62088C16.7376 7.31494 17.2911 7.31494 17.6873 7.62088C20.3561 9.69921 23.4415 9.83638 24.8452 9.83105H25.3036ZM22.8507 22.1586C23.1936 21.4517 23.4788 20.4758 23.6947 19.0727C23.9532 17.3953 24.1114 15.1165 24.186 12.0149C22.5398 11.9674 19.7129 11.6509 17.0166 9.83638C14.3211 11.6456 11.4942 11.9622 9.85332 12.0149C9.91196 14.5785 10.0274 16.5725 10.2122 18.1391C10.4237 19.922 10.724 21.13 11.0989 21.9792C11.3467 22.5436 11.6204 22.9498 11.9482 23.3084C12.3853 23.7885 12.9396 24.1841 13.6939 24.6378C14.0066 24.8255 14.3513 25.0208 14.7271 25.2334C15.3961 25.612 16.1619 26.0455 17.0166 26.5895C17.8561 26.0544 18.6112 25.6253 19.2722 25.2494C19.4712 25.1362 19.6622 25.0277 19.8444 24.9226C20.7727 24.3898 21.4586 23.9468 21.9703 23.4298C22.3132 23.0764 22.5922 22.6914 22.8507 22.1586Z" fill="white"/>
<path d="M47.3123 14.2134H43.5312V11.9853H53.8279V14.2134H50.0468V23.8011H47.3123V14.2134ZM56.924 15.9183C57.2394 15.4794 57.6614 15.1474 58.19 14.9224C58.7301 14.6974 59.3493 14.5848 60.0467 14.5848V17.0155C59.7544 16.993 59.5572 16.9817 59.4559 16.9817C58.7017 16.9817 58.1109 17.1956 57.6836 17.6231C57.2563 18.0395 57.0422 18.6697 57.0422 19.5137V23.8011H54.4089V14.7198H56.924V15.9183ZM70.3212 14.7198V23.8011H67.823V22.7208C67.4738 23.1147 67.0572 23.4185 66.5739 23.6323C66.0897 23.8349 65.5664 23.9362 65.004 23.9362C63.8109 23.9362 62.8656 23.593 62.1682 22.9065C61.47 22.22 61.1217 21.2017 61.1217 19.8513V14.7198H63.755V19.463C63.755 20.926 64.368 21.6574 65.5948 21.6574C66.2247 21.6574 66.7311 21.4548 67.114 21.0497C67.496 20.6333 67.6879 20.0201 67.6879 19.2098V14.7198H70.3212ZM75.3096 23.9362C74.5553 23.9362 73.8179 23.8462 73.0983 23.6661C72.3778 23.4748 71.8039 23.2385 71.3766 22.9571L72.2543 21.0666C72.6595 21.3254 73.149 21.5392 73.7229 21.708C74.2968 21.8656 74.8591 21.9444 75.4108 21.9444C76.5249 21.9444 77.0819 21.6687 77.0819 21.1173C77.0819 20.8585 76.93 20.6728 76.6262 20.5602C76.3223 20.4477 75.8551 20.3521 75.2252 20.2733C74.4825 20.1607 73.8686 20.0314 73.3853 19.885C72.9011 19.7387 72.4791 19.4799 72.1193 19.1086C71.7702 18.7372 71.596 18.2083 71.596 17.5219C71.596 16.948 71.7586 16.4416 72.0855 16.0027C72.4231 15.5525 72.9064 15.2037 73.5372 14.9561C74.1786 14.7086 74.932 14.5848 75.7991 14.5848C76.4405 14.5848 77.0757 14.6579 77.7065 14.8042C78.3479 14.9393 78.8765 15.1305 79.2932 15.3781L78.4154 17.2518C77.6159 16.8016 76.7443 16.5766 75.7991 16.5766C75.2358 16.5766 74.8138 16.6554 74.5331 16.8129C74.2515 16.9704 74.1111 17.173 74.1111 17.4206C74.1111 17.7019 74.263 17.8988 74.5669 18.0114C74.8707 18.1239 75.354 18.2308 76.0185 18.3321C76.7612 18.4559 77.3689 18.5909 77.8415 18.7372C78.3142 18.8722 78.7246 19.1254 79.0738 19.4968C79.422 19.8682 79.597 20.3858 79.597 21.0497C79.597 21.6124 79.4282 22.1132 79.0906 22.552C78.753 22.9909 78.2573 23.3341 77.6052 23.5817C76.9638 23.818 76.198 23.9362 75.3096 23.9362ZM86.5719 23.3623C86.3134 23.5535 85.9927 23.6999 85.6098 23.8011C85.2384 23.8911 84.8449 23.9362 84.4282 23.9362C83.3479 23.9362 82.5101 23.6605 81.9131 23.1091C81.3285 22.5576 81.0354 21.7474 81.0354 20.6784V16.948H79.6343V14.9224H81.0354V12.7111H83.6686V14.9224H85.9305V16.948H83.6686V20.6446C83.6686 21.0273 83.7645 21.3254 83.9555 21.5392C84.1581 21.7418 84.4397 21.8431 84.7995 21.8431C85.2162 21.8431 85.5707 21.7305 85.863 21.5055L86.5719 23.3623ZM109.862 11.9853L105.997 23.8011H103.06L100.46 15.8001L97.7765 23.8011H94.8563L90.974 11.9853H93.8098L96.4767 20.2901L99.2619 11.9853H101.794L104.495 20.3577L107.246 11.9853H109.862ZM113.684 14.5848C115.091 14.5848 116.171 14.9224 116.925 15.5976C117.679 16.2615 118.056 17.2687 118.056 18.6191V23.8011H115.592V22.6702C115.096 23.5142 114.174 23.9362 112.823 23.9362C112.125 23.9362 111.517 23.818 111 23.5817C110.494 23.3454 110.106 23.0191 109.836 22.6027C109.566 22.1863 109.431 21.7136 109.431 21.1848C109.431 20.3408 109.745 19.6769 110.376 19.193C111.017 18.709 112.002 18.4671 113.33 18.4671H115.423C115.423 17.8932 115.248 17.4543 114.9 17.1505C114.55 16.8354 114.027 16.6779 113.33 16.6779C112.846 16.6779 112.368 16.7567 111.895 16.9142C111.433 17.0605 111.04 17.2631 110.713 17.5219L109.768 15.682C110.263 15.3331 110.854 15.063 111.541 14.8718C112.238 14.6805 112.952 14.5848 113.684 14.5848ZM113.482 22.1638C113.931 22.1638 114.331 22.0625 114.68 21.86C115.028 21.6461 115.276 21.3367 115.423 20.9316V20.0032H113.617C112.536 20.0032 111.996 20.3577 111.996 21.0666C111.996 21.4042 112.125 21.6743 112.385 21.8768C112.655 22.0681 113.02 22.1638 113.482 22.1638ZM119.932 11.2764H122.566V23.8011H119.932V11.2764ZM124.503 11.2764H127.137V23.8011H124.503V11.2764ZM137.97 19.2942C137.97 19.328 137.953 19.5643 137.919 20.0032H131.049C131.173 20.5658 131.466 21.0104 131.927 21.3367C132.388 21.663 132.962 21.8262 133.649 21.8262C134.121 21.8262 134.538 21.7587 134.898 21.6236C135.269 21.4773 135.612 21.2523 135.927 20.9485L137.328 22.4676C136.473 23.4467 135.224 23.9362 133.581 23.9362C132.557 23.9362 131.651 23.7392 130.863 23.3454C130.075 22.9403 129.468 22.3832 129.04 21.6743C128.613 20.9653 128.399 20.1607 128.399 19.2605C128.399 18.3715 128.607 17.5725 129.024 16.8636C129.451 16.1433 130.031 15.5863 130.762 15.1925C131.505 14.7874 132.332 14.5848 133.243 14.5848C134.133 14.5848 134.937 14.7761 135.657 15.1587C136.378 15.5413 136.94 16.0927 137.345 16.8129C137.762 17.5219 137.97 18.349 137.97 19.2942ZM133.26 16.5766C132.664 16.5766 132.163 16.7454 131.758 17.083C131.353 17.4206 131.105 17.8819 131.015 18.4671H135.488C135.399 17.8932 135.151 17.4375 134.746 17.0999C134.341 16.751 133.846 16.5766 133.26 16.5766ZM145.074 23.3623C144.815 23.5535 144.494 23.6999 144.111 23.8011C143.74 23.8911 143.346 23.9362 142.93 23.9362C141.849 23.9362 141.012 23.6605 140.415 23.1091C139.83 22.5576 139.537 21.7474 139.537 20.6784V16.948H138.136V14.9224H139.537V12.7111H142.17V14.9224H144.432V16.948H142.17V20.6446C142.17 21.0273 142.266 21.3254 142.457 21.5392C142.66 21.7418 142.941 21.8431 143.301 21.8431C143.718 21.8431 144.072 21.7305 144.365 21.5055L145.074 23.3623Z" fill="white"/>
</svg>
